# xmcd CD database file generated by MAGIX_Freedb v0.9beta0
# 
# Track frame offsets:
#      150
#      11985
#      23400
#      67157
#      91292
#      108617
#      128762
#      145430
#      161972
#      179947
#      198772
#      219225
# 
# Disc length: 3412 seconds
# 
# Revision: 0 
# Processed by: cddbd v1.4PL0 Copyright (c) Steve Scherf et al.
# Submitted via: MAGIX_Freedb v0.9beta0
# 
DISCID=b30d520c
DTITLE=Van Morrison - Hymns to the silence - Volume 2
DYEAR=1991
DGENRE=
TTITLE0=Van Morrison - By his Grace
TTITLE1=Van Morrison - All saints day
TTITLE2=Van Morrison - Himns to the silence
TTITLE3=Van Morrison - On Hyndford street
TTITLE4=Van Morrison - Be thou my vision
TTITLE5=Van Morrison - Carrying a torch
TTITLE6=Van Morrison - Green mansions
TTITLE7=Van Morrison - Pagan streams
TTITLE8=Van Morrison - Quality Street
TTITLE9=Van Morrison - It must be you
TTITLE10=Van Morrison - I need your kind of loving
TTITLE11=Van Morrison - Tell me what you want - Istrumentale
EXTD=
EXTT0=
EXTT1=
EXTT2=
EXTT3=
EXTT4=
EXTT5=
EXTT6=
EXTT7=
EXTT8=
EXTT9=
EXTT10=
EXTT11=
PLAYORDER=
